{
  "source": "C:\\Users\\Peter\\Desktop\\stuff\\MIUN\\quantitative_research\\video_compression\\videos\\BVI-HD\\BVI-HD_CDVL_videos\\ORIG\\TreeGrassFamily_1920x1080_30fps.mp4",
  "output": "C:\\Users\\Peter\\Desktop\\stuff\\MIUN\\quantitative_research\\video_compression\\compressed_videos\\BVI-HD\\av1\\1\\TreeGrassFamily_1920x1080_30fps_av1.mkv",
  "codec": "av1",
  "ok": "Input #0, mov,mp4,m4a,3gp,3g2,mj2, from 'C:\\Users\\Peter\\Desktop\\stuff\\MIUN\\quantitative_research\\video_compression\\videos\\BVI-HD\\BVI-HD_CDVL_videos\\ORIG\\TreeGrassFamily_1920x1080_30fps.mp4':\n  Metadata:\n    major_brand     : isom\n    minor_version   : 512\n    compatible_brands: isomiso2avc1mp41\n    encoder         : Lavf54.28.101\n  Duration: 00:00:05.00, start: 0.000000, bitrate: 331787 kb/s\n  Stream #0:0[0x1](und): Video: h264 (High 4:4:4 Predictive) (avc1 / 0x31637661), yuv420p(progressive), 1920x1080, 331784 kb/s, 30 fps, 30 tbr, 30 tbn (default)\n    Metadata:\n      handler_name    : VideoHandler\n      vendor_id       : [0][0][0][0]\n[out#0/matroska @ 0000022b3a558f00] Codec AVOption b:a (set bitrate (in bits/s)) has not been used for any stream. The most likely reason is either wrong type (e.g. a video option with no video streams) or that it is a private option of some decoder which was not actually used for any stream.\nStream mapping:\n  Stream #0:0 -> #0:0 (h264 (native) -> av1 (libsvtav1))\nPress [q] to stop, [?] for help\nSvt[info]: -------------------------------------------\nSvt[info]: SVT [version]:\tSVT-AV1 Encoder Lib v3.1.0-19-g6ecfe8ec\nSvt[info]: SVT [build]  :\tGCC 15.2.0\t 64 bit\nSvt[info]: LIB Build date: Aug 17 2025 11:37:13\nSvt[info]: -------------------------------------------\nSvt[info]: Level of Parallelism: 5\nSvt[info]: Number of PPCS 93\nSvt[info]: [asm level on system : up to avx2]\nSvt[info]: [asm level selected : up to avx2]\nSvt[info]: -------------------------------------------\nSvt[info]: SVT [config]: main profile\ttier (auto)\tlevel (auto)\nSvt[info]: SVT [config]: width / height / fps numerator / fps denominator \t\t: 1920 / 1080 / 30 / 1\nSvt[info]: SVT [config]: bit-depth / color format \t\t\t\t\t: 8 / YUV420\nSvt[info]: SVT [config]: preset / tune / pred struct \t\t\t\t\t: 4 / PSNR / random access\nSvt[info]: SVT [config]: gop size / mini-gop size / key-frame type \t\t\t: 161 / 16 / key frame\nSvt[info]: SVT [config]: BRC mode / target bitrate (kbps)\t\t\t\t: VBR / 1000 \nSvt[info]: SVT [config]: AQ mode / Variance Boost \t\t\t\t\t: 2 / 0\nSvt[info]: SVT [config]: sharpness / luminance-based QP bias \t\t\t\t: 0 / 0\nSvt[info]: SVT [config]: QP scale compress strength \t\t\t\t\t: 0\nSvt[info]: -------------------------------------------\nOutput #0, matroska, to 'C:\\Users\\Peter\\Desktop\\stuff\\MIUN\\quantitative_research\\video_compression\\compressed_videos\\BVI-HD\\av1\\1\\TreeGrassFamily_1920x1080_30fps_av1.mkv':\n  Metadata:\n    major_brand     : isom\n    minor_version   : 512\n    compatible_brands: isomiso2avc1mp41\n    encoder         : Lavf62.3.100\n  Stream #0:0(und): Video: av1 (AV01 / 0x31305641), yuv420p(tv, progressive), 1920x1080, q=2-31, 1000 kb/s, 30 fps, 1k tbn (default)\n    Metadata:\n      encoder         : Lavc62.11.100 libsvtav1\n      handler_name    : VideoHandler\n      vendor_id       : [0][0][0][0]\n    Side data:\n      cpb: bitrate max/min/avg: 0/0/1000000 buffer size: 1000000 vbv_delay: N/A\nframe=    0 fps=0.0 q=0.0 size=       0KiB time=N/A bitrate=N/A speed=N/A elapsed=0:00:01.05    \nframe=    0 fps=0.0 q=0.0 size=       0KiB time=N/A bitrate=N/A speed=N/A elapsed=0:00:01.62    \nframe=    0 fps=0.0 q=0.0 size=       0KiB time=N/A bitrate=N/A speed=N/A elapsed=0:00:02.16    \nframe=    0 fps=0.0 q=0.0 size=       0KiB time=N/A bitrate=N/A speed=N/A elapsed=0:00:02.71    \nframe=    0 fps=0.0 q=0.0 size=       0KiB time=N/A bitrate=N/A speed=N/A elapsed=0:00:03.24    \nframe=    1 fps=0.3 q=42.0 size=       1KiB time=00:00:00.00 bitrate=N/A speed=   0x elapsed=0:00:03.77    \nframe=    1 fps=0.2 q=42.0 size=       1KiB time=00:00:00.00 bitrate=N/A speed=   0x elapsed=0:00:04.31    \nframe=    1 fps=0.2 q=42.0 size=       1KiB time=00:00:00.00 bitrate=N/A speed=   0x elapsed=0:00:04.83    \nframe=    6 fps=1.1 q=59.0 size=       1KiB time=00:00:00.16 bitrate=  34.2kbits/s speed=0.031x elapsed=0:00:05.38    \nframe=    8 fps=1.3 q=59.0 size=       1KiB time=00:00:00.23 bitrate=  24.4kbits/s speed=0.0394x elapsed=0:00:05.92    \nframe=   12 fps=1.8 q=58.0 size=       1KiB time=00:00:00.33 bitrate=  17.1kbits/s speed=0.0512x elapsed=0:00:06.50    \nframe=   14 fps=2.0 q=57.0 size=       1KiB time=00:00:00.43 bitrate=  13.2kbits/s speed=0.0609x elapsed=0:00:07.11    \nframe=   17 fps=2.2 q=51.0 size=       1KiB time=00:00:00.50 bitrate=  11.4kbits/s speed=0.0646x elapsed=0:00:07.73    \nframe=   20 fps=2.4 q=57.0 size=       1KiB time=00:00:00.63 bitrate=   9.0kbits/s speed=0.0757x elapsed=0:00:08.36    \nframe=   22 fps=2.5 q=56.0 size=       1KiB time=00:00:00.70 bitrate=   8.1kbits/s speed=0.0786x elapsed=0:00:08.90    \nframe=   24 fps=2.5 q=56.0 size=       1KiB time=00:00:00.76 bitrate=   7.4kbits/s speed=0.0811x elapsed=0:00:09.45    \nframe=   27 fps=2.7 q=59.0 size=       1KiB time=00:00:00.86 bitrate=   6.6kbits/s speed=0.0858x elapsed=0:00:10.09    \nframe=   31 fps=2.9 q=59.0 size=       1KiB time=00:00:01.00 bitrate=   5.7kbits/s speed=0.0941x elapsed=0:00:10.62    \nframe=   35 fps=3.1 q=59.0 size=       1KiB time=00:00:01.13 bitrate=   5.0kbits/s speed=0.102x elapsed=0:00:11.15    \nframe=   39 fps=3.3 q=58.0 size=       1KiB time=00:00:01.23 bitrate=   4.6kbits/s speed=0.105x elapsed=0:00:11.70    \nframe=   43 fps=3.5 q=59.0 size=       1KiB time=00:00:01.33 bitrate=   4.3kbits/s speed=0.108x elapsed=0:00:12.33    \nframe=   47 fps=3.7 q=59.0 size=       1KiB time=00:00:01.53 bitrate=   3.7kbits/s speed=0.119x elapsed=0:00:12.87    \nframe=   55 fps=4.1 q=58.0 size=       1KiB time=00:00:01.80 bitrate=   3.2kbits/s speed=0.134x elapsed=0:00:13.39    \nframe=   57 fps=4.1 q=56.0 size=       1KiB time=00:00:01.86 bitrate=   3.1kbits/s speed=0.134x elapsed=0:00:13.92    \nframe=   65 fps=4.5 q=47.0 size=       1KiB time=00:00:02.13 bitrate=   2.7kbits/s speed=0.148x elapsed=0:00:14.44    \nframe=   69 fps=4.6 q=58.0 size=       1KiB time=00:00:02.26 bitrate=   2.5kbits/s speed=0.152x elapsed=0:00:14.96    \nframe=   75 fps=4.8 q=59.0 size=       1KiB time=00:00:02.46 bitrate=   2.3kbits/s speed=0.159x elapsed=0:00:15.49    \nframe=   81 fps=5.1 q=50.0 size=       1KiB time=00:00:02.66 bitrate=   2.1kbits/s speed=0.167x elapsed=0:00:16.00    \nframe=   89 fps=5.4 q=57.0 size=       1KiB time=00:00:02.93 bitrate=   1.9kbits/s speed=0.178x elapsed=0:00:16.52    \nframe=   93 fps=5.5 q=58.0 size=       1KiB time=00:00:03.06 bitrate=   1.9kbits/s speed=0.18x elapsed=0:00:17.05    \nframe=  101 fps=5.7 q=59.0 size=       1KiB time=00:00:03.33 bitrate=   1.7kbits/s speed=0.189x elapsed=0:00:17.59    \nframe=  105 fps=5.8 q=57.0 size=       1KiB time=00:00:03.46 bitrate=   1.6kbits/s speed=0.191x elapsed=0:00:18.11    \nframe=  109 fps=5.8 q=57.0 size=       1KiB time=00:00:03.60 bitrate=   1.6kbits/s speed=0.193x elapsed=0:00:18.65    \nframe=  117 fps=6.1 q=59.0 size=       1KiB time=00:00:03.86 bitrate=   1.5kbits/s speed=0.202x elapsed=0:00:19.18    \nframe=  123 fps=6.2 q=61.0 size=       1KiB time=00:00:04.06 bitrate=   1.4kbits/s speed=0.206x elapsed=0:00:19.70    \nframe=  133 fps=6.6 q=62.0 size=       1KiB time=00:00:04.40 bitrate=   1.3kbits/s speed=0.217x elapsed=0:00:20.23    \n[out#0/matroska @ 0000022b3a558f00] video:532KiB audio:0KiB subtitle:0KiB other streams:0KiB global headers:0KiB muxing overhead: 0.264498%\nframe=  150 fps=7.2 q=63.0 Lsize=     533KiB time=00:00:04.96 bitrate= 879.9kbits/s speed=0.24x elapsed=0:00:20.71    \n",
  "seconds": 21.181249856948853,
  "probe_out": {}
}